<svg width="48" height="42" viewBox="0 0 48 42" fill="none" xmlns="http://www.w3.org/2000/svg">
<path fill-rule="evenodd" clip-rule="evenodd" d="M10.6374 35.4058C11.2422 35.4058 11.7338 35.8973 11.7338 36.5021C11.7338 37.1069 11.2422 37.5971 10.6374 37.5971C10.0326 37.5971 9.54248 37.1069 9.54248 36.5021C9.54248 35.8973 10.0326 35.4058 10.6374 35.4058Z" stroke="white" stroke-width="2.14975" stroke-linecap="round" stroke-linejoin="round"/>
<path fill-rule="evenodd" clip-rule="evenodd" d="M26.7639 35.4058C27.3686 35.4058 27.8602 35.8973 27.8602 36.5021C27.8602 37.1069 27.3686 37.5971 26.7639 37.5971C26.1591 37.5971 25.6675 37.1069 25.6675 36.5021C25.6675 35.8973 26.1591 35.4058 26.7639 35.4058Z" stroke="white" stroke-width="2.14975" stroke-linecap="round" stroke-linejoin="round"/>
<path d="M3.94104 11.6578L6.92202 12.1738L8.30216 28.6165C8.41394 29.9565 9.53325 30.9855 10.8776 30.9855H26.5162C27.8004 30.9855 28.8896 30.0425 29.0744 28.7698L30.4345 19.3711C30.6022 18.2117 29.7036 17.1741 28.5327 17.1741H7.4007" stroke="white" stroke-width="2.14975" stroke-linecap="round" stroke-linejoin="round"/>
<path d="M20.244 22.4711H24.2182" stroke="white" stroke-width="2.14975" stroke-linecap="round" stroke-linejoin="round"/>
<path d="M37.0008 3V19" stroke="#F5F5F5" stroke-width="5.11851" stroke-linecap="round" stroke-linejoin="round"/>
<path d="M45 10.9999H29" stroke="#F5F5F5" stroke-width="5.11851" stroke-linecap="round" stroke-linejoin="round"/>
</svg>
