<svg width="18" height="18" viewBox="0 0 18 18" fill="none" xmlns="http://www.w3.org/2000/svg">
<path fill-rule="evenodd" clip-rule="evenodd" d="M5.37099 15.3759C5.72964 15.3759 6.02115 15.6803 6.02115 16.0549C6.02115 16.4295 5.72964 16.7331 5.37099 16.7331C5.01234 16.7331 4.72168 16.4295 4.72168 16.0549C4.72168 15.6803 5.01234 15.3759 5.37099 15.3759Z" stroke="#99A2AD" stroke-width="1.27823" stroke-linecap="round" stroke-linejoin="round"/>
<path fill-rule="evenodd" clip-rule="evenodd" d="M14.9343 15.3759C15.293 15.3759 15.5845 15.6803 15.5845 16.0549C15.5845 16.4295 15.293 16.7331 14.9343 16.7331C14.5757 16.7331 14.2842 16.4295 14.2842 16.0549C14.2842 15.6803 14.5757 15.3759 14.9343 15.3759Z" stroke="#99A2AD" stroke-width="1.27823" stroke-linecap="round" stroke-linejoin="round"/>
<path d="M1.3999 0.667114L3.16766 0.986671L3.9861 11.1708C4.05239 12.0007 4.71615 12.6381 5.51335 12.6381H14.7873C15.5488 12.6381 16.1947 12.054 16.3043 11.2657L17.1109 5.44449C17.2103 4.72637 16.6774 4.08371 15.9831 4.08371H3.45152" stroke="#99A2AD" stroke-width="1.27823" stroke-linecap="round" stroke-linejoin="round"/>
<path d="M11.0679 7.36461H13.4246" stroke="#99A2AD" stroke-width="1.27823" stroke-linecap="round" stroke-linejoin="round"/>
</svg>
