<svg width="21" height="23" viewBox="0 0 21 23" fill="none" xmlns="http://www.w3.org/2000/svg">
<path fill-rule="evenodd" clip-rule="evenodd" d="M6.77977 12.6687C6.2318 12.6687 5.78662 12.2038 5.78662 11.6314C5.78662 11.0608 6.2318 10.5958 6.77977 10.5958C7.32775 10.5958 7.77292 11.0608 7.77292 11.6314C7.77292 12.2038 7.32775 12.6687 6.77977 12.6687ZM10.6406 12.6687C10.0927 12.6687 9.64749 12.2038 9.64749 11.6315C9.64749 11.0608 10.0927 10.5959 10.6406 10.5959C11.1886 10.5959 11.6338 11.0608 11.6338 11.6315C11.6338 12.2038 11.1886 12.6687 10.6406 12.6687ZM13.5084 11.6315C13.5084 12.2038 13.9536 12.6687 14.5015 12.6687C15.0495 12.6687 15.4947 12.2038 15.4947 11.6315C15.4947 11.0608 15.0495 10.5959 14.5015 10.5959C13.9536 10.5959 13.5084 11.0608 13.5084 11.6315Z" fill="#828282"/>
<path fill-rule="evenodd" clip-rule="evenodd" d="M10.4553 2.55762C5.51747 2.55762 1.93945 6.77055 1.93945 11.4475C1.93945 12.941 2.3559 14.4781 3.0868 15.8827C3.22278 16.1147 3.23978 16.4072 3.14629 16.6837L2.57687 18.675C2.44938 19.1551 2.84033 19.5098 3.27377 19.3676L4.99054 18.835C5.45798 18.675 5.82343 18.8786 6.25687 19.1551C7.4977 19.9187 9.04449 20.3108 10.4383 20.3108C14.6537 20.3108 18.9372 16.9059 18.9372 11.4209C18.9372 6.69054 15.2826 2.55762 10.4553 2.55762Z" stroke="#99A2AD" stroke-width="1.27823" stroke-linecap="round" stroke-linejoin="round"/>
</svg>
