<svg width="29" height="29" viewBox="0 0 29 29" fill="none" xmlns="http://www.w3.org/2000/svg">
<path fill-rule="evenodd" clip-rule="evenodd" d="M9.01656 15.6901C8.26109 15.6901 7.64734 15.0763 7.64734 14.3209C7.64734 13.5676 8.26109 12.9539 9.01656 12.9539C9.77204 12.9539 10.3858 13.5676 10.3858 14.3209C10.3858 15.0763 9.77204 15.6901 9.01656 15.6901ZM14.3395 15.6901C13.584 15.6901 12.9702 15.0764 12.9702 14.3209C12.9702 13.5677 13.584 12.9539 14.3395 12.9539C15.0949 12.9539 15.7087 13.5677 15.7087 14.3209C15.7087 15.0764 15.0949 15.6901 14.3395 15.6901ZM18.2932 14.3209C18.2932 15.0764 18.9069 15.6901 19.6624 15.6901C20.4179 15.6901 21.0316 15.0764 21.0316 14.3209C21.0316 13.5677 20.4179 12.9539 19.6624 12.9539C18.9069 12.9539 18.2932 13.5677 18.2932 14.3209Z" fill="#2978D1"/>
<path fill-rule="evenodd" clip-rule="evenodd" d="M14.0839 2.34338C7.27628 2.34338 2.34338 7.90445 2.34338 14.0781C2.34338 16.0495 2.91752 18.0784 3.92519 19.9325C4.11266 20.2388 4.1361 20.6249 4.00721 20.9898L3.22217 23.6184C3.04641 24.252 3.58539 24.7203 4.18297 24.5325L6.54982 23.8296C7.19426 23.6184 7.69809 23.8871 8.29566 24.252C10.0064 25.2601 12.1389 25.7776 14.0605 25.7776C19.8721 25.7776 25.7776 21.2832 25.7776 14.0429C25.7776 7.79884 20.7392 2.34338 14.0839 2.34338Z" stroke="#2978D1" stroke-width="1.27823" stroke-linecap="round" stroke-linejoin="round"/>
</svg>
