<svg width="21" height="21" viewBox="0 0 21 21" fill="none" xmlns="http://www.w3.org/2000/svg">
<path d="M16.8479 8.06848C16.8479 8.06848 16.3796 13.8077 16.108 16.2253C15.9786 17.3799 15.2569 18.0566 14.0746 18.0779C11.8248 18.1179 9.57242 18.1205 7.32347 18.0736C6.18607 18.0506 5.47637 17.3655 5.34961 16.2312C5.07625 13.7924 4.6106 8.06848 4.6106 8.06848" stroke="#818C99" stroke-width="1.27823" stroke-linecap="round" stroke-linejoin="round"/>
<path d="M18.0406 5.31731H3.41724" stroke="#818C99" stroke-width="1.27823" stroke-linecap="round" stroke-linejoin="round"/>
<path d="M15.2229 5.31727C14.546 5.31727 13.963 4.84433 13.8302 4.18902L13.6207 3.15281C13.4913 2.67475 13.0533 2.34412 12.554 2.34412H8.90376C8.40448 2.34412 7.96641 2.67475 7.83707 3.15281L7.62752 4.18902C7.49472 4.84433 6.91179 5.31727 6.23486 5.31727" stroke="#818C99" stroke-width="1.27823" stroke-linecap="round" stroke-linejoin="round"/>
</svg>
