<svg width="21" height="23" viewBox="0 0 21 23" fill="none" xmlns="http://www.w3.org/2000/svg">
<path d="M8.19937 19.2201V16.4979C8.19936 15.8055 8.73982 15.2429 9.40944 15.2382H11.8623C12.5351 15.2382 13.0805 15.8022 13.0805 16.4979V16.4979V19.2285C13.0804 19.8164 13.5341 20.2969 14.1025 20.3107H15.7377C17.3679 20.3107 18.6893 18.9443 18.6893 17.2587V17.2587V9.51481C18.6806 8.85172 18.3795 8.22905 17.8717 7.824L12.2793 3.16581C11.2995 2.35472 9.90678 2.35472 8.92705 3.16581L3.35911 7.83245C2.84938 8.23586 2.54778 8.85957 2.5415 9.52326V17.2587C2.5415 18.9443 3.86297 20.3107 5.49308 20.3107H7.1283C7.71081 20.3107 8.18302 19.8224 8.18302 19.2201V19.2201" stroke="#99A2AD" stroke-width="1.65104" stroke-linecap="round" stroke-linejoin="round"/>
</svg>
