<svg width="21" height="23" viewBox="0 0 21 23" fill="none" xmlns="http://www.w3.org/2000/svg">
<ellipse cx="9.99193" cy="7.24272" rx="4.06078" ry="4.24126" stroke="#99A2AD" stroke-width="1.27823" stroke-linecap="round" stroke-linejoin="round"/>
<path fill-rule="evenodd" clip-rule="evenodd" d="M3.5508 17.3827C3.5497 17.0846 3.61355 16.7901 3.7375 16.5215C4.12646 15.709 5.22334 15.2784 6.13351 15.0834C6.78993 14.9371 7.45541 14.8393 8.12501 14.7909C9.36471 14.6771 10.6116 14.6771 11.8513 14.7909C12.5208 14.8399 13.1863 14.9376 13.8428 15.0834C14.7529 15.2784 15.8498 15.6684 16.2388 16.5215C16.488 17.069 16.488 17.7046 16.2388 18.2521C15.8498 19.1053 14.7529 19.4953 13.8428 19.6821C13.1871 19.8345 12.5214 19.935 11.8513 19.9828C10.8423 20.0721 9.82853 20.0884 8.81736 20.0315C8.58398 20.0315 8.35838 20.0315 8.12501 19.9828C7.45739 19.9356 6.79421 19.8351 6.14129 19.6821C5.22334 19.4953 4.13424 19.1053 3.7375 18.2521C3.61418 17.9804 3.5504 17.6834 3.5508 17.3827Z" stroke="#99A2AD" stroke-width="1.27823" stroke-linecap="round" stroke-linejoin="round"/>
</svg>
