<svg width="32" height="34" viewBox="0 0 32 34" fill="none" xmlns="http://www.w3.org/2000/svg">
<path fill-rule="evenodd" clip-rule="evenodd" d="M30.6774 9.70598L29.64 7.90583C28.7624 6.38263 26.8174 5.85716 25.2922 6.73115V6.73115C24.5661 7.15887 23.6997 7.28021 22.8841 7.06844C22.0685 6.85666 21.3706 6.32915 20.9443 5.60224C20.6701 5.14021 20.5228 4.61395 20.5172 4.07669V4.07669C20.5419 3.21533 20.2169 2.38063 19.6163 1.76274C19.0157 1.14485 18.1905 0.796398 17.3288 0.796753H15.2388C14.3945 0.796743 13.5851 1.13315 12.9896 1.73153C12.3941 2.32992 12.0615 3.14095 12.0656 3.98516V3.98516C12.0406 5.72817 10.6204 7.12798 8.8772 7.1278C8.33995 7.12222 7.81369 6.97487 7.35165 6.70064V6.70064C5.82636 5.82665 3.88145 6.35212 3.00382 7.87532L1.89017 9.70598C1.01361 11.2273 1.53193 13.171 3.04959 14.0538V14.0538C4.0361 14.6234 4.64381 15.6759 4.64381 16.8151C4.64381 17.9542 4.0361 19.0068 3.04959 19.5763V19.5763C1.53385 20.4532 1.01497 22.3922 1.89017 23.9089V23.9089L2.9428 25.7243C3.354 26.4663 4.04393 27.0138 4.85991 27.2457C5.6759 27.4776 6.55066 27.3748 7.29063 26.96V26.96C8.01806 26.5355 8.88491 26.4192 9.69849 26.637C10.5121 26.8547 11.205 27.3884 11.6232 28.1194C11.8974 28.5814 12.0448 29.1077 12.0504 29.645V29.645C12.0504 31.4059 13.4779 32.8334 15.2388 32.8334H17.3288C19.0837 32.8334 20.5088 31.4152 20.5172 29.6602V29.6602C20.5131 28.8134 20.8477 28 21.4465 27.4012C22.0454 26.8023 22.8587 26.4677 23.7056 26.4718C24.2415 26.4862 24.7656 26.6329 25.2311 26.899V26.899C26.7524 27.7755 28.6961 27.2572 29.579 25.7395V25.7395L30.6774 23.9089C31.1025 23.1791 31.2192 22.31 31.0016 21.4939C30.784 20.6779 30.25 19.9822 29.5179 19.5611V19.5611C28.7859 19.1399 28.2519 18.4443 28.0343 17.6282C27.8167 16.8121 27.9334 15.943 28.3585 15.2132C28.635 14.7305 29.0352 14.3303 29.5179 14.0538V14.0538C31.0265 13.1714 31.5436 11.2391 30.6774 9.72124V9.72124V9.70598Z" stroke="#6F7985" stroke-width="1.5" stroke-linecap="round" stroke-linejoin="round"/>
<ellipse cx="16.2911" cy="16.8151" rx="4.39359" ry="4.39359" stroke="#6F7985" stroke-width="1.5" stroke-linecap="round" stroke-linejoin="round"/>
</svg>
