<svg width="21" height="23" viewBox="0 0 21 23" fill="none" xmlns="http://www.w3.org/2000/svg">
<path fill-rule="evenodd" clip-rule="evenodd" d="M14.1692 2.5575H16.9454C18.0941 2.5575 19.0259 3.53915 19.0259 4.75017V7.67405C19.0259 8.88415 18.0941 9.86672 16.9454 9.86672H14.1692C13.0197 9.86672 12.0879 8.88415 12.0879 7.67405V4.75017C12.0879 3.53915 13.0197 2.5575 14.1692 2.5575Z" stroke="#99A2AD" stroke-width="1.65104" stroke-linecap="round" stroke-linejoin="round"/>
<path fill-rule="evenodd" clip-rule="evenodd" d="M4.10913 2.5575H6.88449C8.034 2.5575 8.96579 3.53915 8.96579 4.75017V7.67405C8.96579 8.88415 8.034 9.86672 6.88449 9.86672H4.10913C2.95963 9.86672 2.02783 8.88415 2.02783 7.67405V4.75017C2.02783 3.53915 2.95963 2.5575 4.10913 2.5575Z" stroke="#99A2AD" stroke-width="1.65104" stroke-linecap="round" stroke-linejoin="round"/>
<path fill-rule="evenodd" clip-rule="evenodd" d="M4.10913 13.0015H6.88449C8.034 13.0015 8.96579 13.9831 8.96579 15.1951V18.118C8.96579 19.329 8.034 20.3107 6.88449 20.3107H4.10913C2.95963 20.3107 2.02783 19.329 2.02783 18.118V15.1951C2.02783 13.9831 2.95963 13.0015 4.10913 13.0015Z" stroke="#99A2AD" stroke-width="1.65104" stroke-linecap="round" stroke-linejoin="round"/>
<path fill-rule="evenodd" clip-rule="evenodd" d="M14.1692 13.0015H16.9454C18.0941 13.0015 19.0259 13.9831 19.0259 15.1951V18.118C19.0259 19.329 18.0941 20.3107 16.9454 20.3107H14.1692C13.0197 20.3107 12.0879 19.329 12.0879 18.118V15.1951C12.0879 13.9831 13.0197 13.0015 14.1692 13.0015Z" stroke="#99A2AD" stroke-width="1.65104" stroke-linecap="round" stroke-linejoin="round"/>
</svg>
